<svg width="40" height="40" viewBox="0 0 40 40" fill="none" xmlns="http://www.w3.org/2000/svg">
<path d="M32.7999 3.19995H7.19995C4.99195 3.19995 3.19995 4.99195 3.19995 7.19995V32.8C3.19995 35.008 4.99195 36.8 7.19995 36.8H32.7999C35.0079 36.8 36.7999 35.008 36.7999 32.8V7.19995C36.7999 4.99195 35.0079 3.19995 32.7999 3.19995ZM13.6 16V31.2H8.79995V16H13.6ZM8.79995 11.576C8.79995 10.456 9.75995 9.59995 11.2 9.59995C12.64 9.59995 13.544 10.456 13.6 11.576C13.6 12.696 12.704 13.6 11.2 13.6C9.75995 13.6 8.79995 12.696 8.79995 11.576ZM31.1999 31.2H26.4C26.4 31.2 26.4 23.792 26.4 23.2C26.4 21.6 25.6 20 23.6 19.968H23.5359C21.5999 19.968 20.7999 21.616 20.7999 23.2C20.7999 23.928 20.7999 31.2 20.7999 31.2H16V16H20.7999V18.048C20.7999 18.048 22.344 16 25.448 16C28.624 16 31.1999 18.184 31.1999 22.608V31.2Z" fill="#E5E8E8"/>
</svg>
